<svg width="529" height="441" viewBox="0 0 529 441" fill="none" xmlns="http://www.w3.org/2000/svg">
<g clip-path="url(#clip0)">
<path d="M63.798 277.733C65.8816 266.794 66.2406 257.672 64.5999 257.36C62.9592 257.047 59.94 265.661 57.8565 276.6C55.7729 287.539 55.4139 296.661 57.0546 296.973C58.6953 297.286 61.7144 288.672 63.798 277.733Z" fill="#E0E0E0"/>
<path d="M339.136 330.311C341.22 319.372 342.005 310.332 340.89 310.12C339.776 309.907 337.183 318.603 335.099 329.542C333.016 340.481 332.23 349.521 333.345 349.733C334.46 349.946 337.053 341.25 339.136 330.311Z" fill="#E0E0E0"/>
<path d="M195.636 318.025L184.58 313.115L168.216 349.97L179.272 354.88L195.636 318.025Z" fill="#F55F44"/>
<path opacity="0.05" d="M184.007 356.134L197.607 355.571L195.937 315.279L182.338 315.842L184.007 356.134Z" fill="black"/>
<path d="M185.52 356.071L197.607 355.571L195.937 315.279L183.851 315.779L185.52 356.071Z" fill="#F55F44"/>
<path d="M64.7885 256.369L56.866 297.964L333.148 350.614L341.07 309.019L64.7885 256.369Z" fill="url(#paint0_linear)"/>
<path d="M333.336 349.623C327.95 348.671 53.0936 296.218 57.0546 296.973C64.7412 272.781 64.5999 257.36 64.5999 257.36L340.881 310.01C340.881 310.01 336.537 327.346 333.336 349.623Z" fill="#E6E6E6"/>
<path opacity="0.05" d="M208.187 284.722L185.411 280.382L177.866 319.996L200.642 324.336L208.187 284.722Z" fill="black"/>
<path d="M207.197 284.534L186.401 280.571L178.856 320.184L199.652 324.147L207.197 284.534Z" fill="#F55F44"/>
<path opacity="0.05" d="M203.236 283.779L189.372 281.137L181.827 320.751L195.691 323.393L203.236 283.779Z" fill="black"/>
<path d="M202.246 283.59L190.363 281.326L182.817 320.939L194.7 323.204L202.246 283.59Z" fill="#F55F44"/>
<path d="M168.614 289.069L160.898 312.699C160.898 312.699 171.042 331.937 268.822 304.035C366.603 276.133 368.941 254.602 368.941 254.602L343.264 233.139L276.718 210.563L168.614 289.069Z" fill="#4D8AF0"/>
<path opacity="0.15" d="M168.614 289.069L160.898 312.699C160.898 312.699 171.042 331.937 268.822 304.035C366.603 276.133 368.941 254.602 368.941 254.602L343.264 233.139L276.718 210.563L168.614 289.069Z" fill="black"/>
<path d="M430.447 136.316L277.635 261.906L43.6856 244.32L213.725 101.392L321.642 118.781L325.509 119.407L430.447 136.316Z" fill="#4D8AF0"/>
<path opacity="0.15" d="M430.447 136.316L277.635 261.906L43.6856 244.32L213.725 101.392L321.642 118.781L325.509 119.407L430.447 136.316Z" fill="black"/>
<path d="M346.237 179.708L342.973 180.834L321.642 118.781L325.509 119.407L346.237 179.708Z" fill="#F5F5F5"/>
<path d="M150.12 214.3L160.898 312.699C160.898 312.699 262.068 245.673 368.941 254.602L326.74 159.013C326.74 159.013 192.231 179.276 150.12 214.3Z" fill="#4D8AF0"/>
<path d="M351.32 198.976C360.181 196.501 365.982 189.54 364.275 183.428C362.568 177.315 354 174.366 345.138 176.841C336.276 179.316 330.476 186.277 332.183 192.389C333.89 198.502 342.458 201.451 351.32 198.976Z" fill="#F5F5F5"/>
</g>
<defs>
<linearGradient id="paint0_linear" x1="195.007" y1="324.289" x2="202.933" y2="282.695" gradientUnits="userSpaceOnUse">
<stop stop-color="#808080" stop-opacity="0.25"/>
<stop offset="0.53514" stop-color="#808080" stop-opacity="0.12"/>
<stop offset="1" stop-color="#808080" stop-opacity="0.1"/>
</linearGradient>
<clipPath id="clip0">
<rect width="456.935" height="329.809" fill="white" transform="translate(0 122.898) rotate(-15.6025)"/>
</clipPath>
</defs>
</svg>
