<svg width="406" height="379" viewBox="0 0 406 379" fill="none" xmlns="http://www.w3.org/2000/svg">
<g opacity="0.4">
<path d="M309.376 90.0648H307.292V33.0176C307.292 24.2608 303.812 15.8626 297.617 9.67063C291.422 3.47864 283.02 1.14441e-05 274.259 1.14441e-05H153.339C144.578 1.14441e-05 136.175 3.47864 129.98 9.67063C123.785 15.8626 120.305 24.2608 120.305 33.0176V345.982C120.305 354.739 123.785 363.137 129.98 369.329C136.175 375.521 144.578 379 153.339 379H274.261C283.022 379 291.424 375.521 297.619 369.329C303.814 363.137 307.295 354.739 307.295 345.982V130.672H309.376V90.0648Z" fill="#3F3D56"/>
<path d="M300.56 30.8082V348.193C300.559 354.833 297.92 361.2 293.223 365.895C288.527 370.59 282.157 373.229 275.515 373.231H152.108C145.463 373.232 139.089 370.594 134.39 365.898C129.69 361.202 127.049 354.833 127.048 348.191V30.8082C127.05 24.1667 129.691 17.7979 134.391 13.1026C139.09 8.40737 145.463 5.77009 152.108 5.77083H167.078C166.343 7.57754 166.063 9.53705 166.263 11.4771C166.463 13.4172 167.137 15.2784 168.225 16.8972C169.314 18.516 170.783 19.8428 172.505 20.761C174.227 21.6792 176.147 22.1607 178.099 22.1631H248.454C250.405 22.1605 252.326 21.6787 254.047 20.7603C255.769 19.8418 257.238 18.5147 258.327 16.8957C259.415 15.2766 260.088 13.4152 260.288 11.475C260.488 9.5348 260.208 7.57525 259.472 5.7686H275.508C282.15 5.76978 288.52 8.40733 293.217 13.1014C297.915 17.7955 300.555 24.1619 300.557 30.801L300.56 30.8082Z" fill="#E6E6E6"/>
<path d="M287.411 356.664H140.197C138.94 356.663 137.735 356.163 136.847 355.275C135.958 354.387 135.458 353.182 135.457 351.926V42.596C135.458 41.34 135.958 40.1358 136.847 39.2477C137.735 38.3595 138.94 37.8599 140.197 37.8585H287.411C288.667 37.8599 289.872 38.3595 290.761 39.2477C291.649 40.1358 292.149 41.34 292.151 42.596V351.926C292.149 353.182 291.649 354.387 290.761 355.275C289.872 356.163 288.667 356.663 287.411 356.664Z" fill="white"/>
<path d="M213.246 142.296C235.647 142.296 253.806 124.146 253.806 101.756C253.806 79.3668 235.647 61.2166 213.246 61.2166C190.846 61.2166 172.686 79.3668 172.686 101.756C172.686 124.146 190.846 142.296 213.246 142.296Z" fill="#E6E6E6"/>
<path d="M212.688 136.807C232.056 136.807 247.757 121.114 247.757 101.756C247.757 82.3979 232.056 66.7049 212.688 66.7049C193.321 66.7049 177.62 82.3979 177.62 101.756C177.62 121.114 193.321 136.807 212.688 136.807Z" fill="white"/>
<path d="M213.469 81.8754C209.515 81.8754 205.649 83.0475 202.361 85.2434C199.073 87.4393 196.51 90.5604 194.997 94.2121C193.483 97.8638 193.087 101.882 193.859 105.759C194.63 109.635 196.535 113.196 199.331 115.991C202.127 118.786 205.69 120.689 209.568 121.46C213.447 122.231 217.467 121.836 221.121 120.323C224.774 118.81 227.897 116.249 230.094 112.963C232.291 109.676 233.464 105.812 233.464 101.86C233.464 96.5596 231.357 91.4765 227.607 87.7287C223.858 83.9809 218.772 81.8754 213.469 81.8754ZM213.469 87.8708C214.656 87.8708 215.815 88.2225 216.802 88.8813C217.788 89.5401 218.557 90.4764 219.011 91.5719C219.465 92.6674 219.584 93.8729 219.352 95.0359C219.121 96.1989 218.55 97.2672 217.711 98.1057C216.872 98.9442 215.803 99.5152 214.639 99.7465C213.476 99.9779 212.27 99.8591 211.174 99.4054C210.078 98.9516 209.141 98.1831 208.482 97.1972C207.823 96.2112 207.471 95.0521 207.471 93.8663C207.471 93.079 207.626 92.2993 207.927 91.5719C208.229 90.8445 208.671 90.1836 209.228 89.6269C209.785 89.0701 210.446 88.6285 211.174 88.3272C211.901 88.0259 212.681 87.8708 213.469 87.8708ZM213.469 116.733C211.1 116.722 208.768 116.134 206.678 115.018C204.587 113.903 202.8 112.295 201.472 110.334C201.568 106.337 209.47 104.137 213.469 104.137C217.468 104.137 225.369 106.337 225.466 110.334C224.137 112.294 222.35 113.901 220.259 115.017C218.169 116.132 215.838 116.721 213.469 116.734V116.733Z" fill="white"/>
<path d="M246.719 155.919H176.548V161.191H246.719V155.919Z" fill="#E6E6E6"/>
<path d="M255.47 169.617H167.16V174.889H255.47V169.617Z" fill="#E6E6E6"/>
<path d="M276.006 208.964H151.602V333.306H276.006V208.964Z" fill="#E6E6E6"/>
<path d="M272.72 211.595H153.58V330.676H272.72V211.595Z" fill="white"/>
<path d="M224.492 223.09H178.115V226.574H224.492V223.09Z" fill="#E6E6E6"/>
<path d="M249.731 233.318H178.115V236.802H249.731V233.318Z" fill="white"/>
<path d="M237.225 243.059H178.86V246.543H237.225V243.059Z" fill="#E6E6E6"/>
<path d="M212.188 253.747H178.115V257.231H212.188V253.747Z" fill="#E6E6E6"/>
<path d="M229.54 264.186H178.115V267.67H229.54V264.186Z" fill="white"/>
<path d="M224.492 274.691H178.115V278.175H224.492V274.691Z" fill="#E6E6E6"/>
<path d="M249.731 284.919H178.115V288.403H249.731V284.919Z" fill="white"/>
<path d="M237.225 294.66H178.86V298.144H237.225V294.66Z" fill="#E6E6E6"/>
<path d="M212.188 305.349H178.115V308.833H212.188V305.349Z" fill="#E6E6E6"/>
<path d="M229.54 315.788H178.115V319.272H229.54V315.788Z" fill="#E6E6E6"/>
<path d="M68.9795 235.792C68.7059 235.917 68.4428 236.063 68.1927 236.23L43.1819 225.561L42.2897 218.976L32.2959 218.914L32.8864 234.019L65.8981 242.746C65.9676 242.975 66.051 243.2 66.1479 243.419C66.6252 244.437 67.3928 245.291 68.3543 245.875C69.3157 246.458 70.4282 246.744 71.552 246.698C72.6758 246.651 73.7608 246.274 74.6708 245.613C75.5807 244.952 76.275 244.037 76.6664 242.983C77.0578 241.93 77.129 240.784 76.8709 239.689C76.6128 238.595 76.037 237.601 75.2158 236.833C74.3946 236.065 73.3646 235.557 72.2551 235.372C71.1457 235.187 70.0063 235.333 68.9801 235.793L68.9795 235.792Z" fill="#A0616A"/>
<path d="M28.6613 372.655H35.4978L38.7499 346.298H28.6601L28.6613 372.655Z" fill="#A0616A"/>
<path d="M40.3809 370.702H27.1963V378.997H48.6823C48.6823 376.796 47.8077 374.686 46.2509 373.13C44.6941 371.573 42.5826 370.699 40.3809 370.699H40.3809L40.3809 370.702Z" fill="#2F2E41"/>
<path d="M2.07343 370.724L8.87651 371.393L14.6987 345.483L4.65748 344.497L2.07343 370.724Z" fill="#A0616A"/>
<path d="M13.9322 369.931L0.813523 368.639L-1.52588e-05 376.895L21.378 378.999C21.4848 377.915 21.377 376.821 21.0606 375.778C20.7442 374.736 20.2255 373.766 19.534 372.924C18.8425 372.081 17.9919 371.384 17.0306 370.87C16.0694 370.357 15.0164 370.037 13.9316 369.93L13.9322 369.931Z" fill="#2F2E41"/>
<path d="M26.758 191.021C34.3221 191.021 40.454 184.892 40.454 177.332C40.454 169.772 34.3221 163.643 26.758 163.643C19.194 163.643 13.0621 169.772 13.0621 177.332C13.0621 184.892 19.194 191.021 26.758 191.021Z" fill="#A0616A"/>
<path d="M37.0257 367.325C37.6134 367.326 38.1828 367.12 38.6332 366.743C39.0837 366.365 39.3863 365.841 39.4876 365.262C43.0236 345.633 54.5927 281.437 54.8693 279.657C54.8755 279.616 54.8785 279.575 54.8782 279.533V274.747C54.8787 274.572 54.8243 274.402 54.7226 274.261L53.1947 272.122C53.1221 272.019 53.0268 271.934 52.9162 271.873C52.8057 271.813 52.6827 271.779 52.5568 271.773C43.8455 271.365 15.3161 270.169 13.9376 271.89C12.5536 273.618 13.0454 278.861 13.1569 279.893L13.1513 280.001L0.334233 361.932C0.233833 362.585 0.394915 363.252 0.782619 363.787C1.17032 364.323 1.75346 364.685 2.40583 364.794L10.4112 366.112C11.0074 366.208 11.6181 366.086 12.1324 365.77C12.6466 365.453 13.0302 364.963 13.2133 364.388C15.6891 356.48 23.9917 329.878 26.869 319.584C26.8874 319.519 26.9287 319.463 26.9852 319.427C27.0417 319.39 27.1096 319.375 27.1764 319.384C27.2431 319.394 27.3042 319.427 27.3482 319.478C27.3923 319.529 27.4164 319.594 27.4161 319.662C27.2722 329.474 26.9248 354.509 26.8027 363.156L26.7898 364.087C26.7845 364.717 27.0161 365.327 27.4387 365.795C27.8613 366.263 28.4442 366.556 29.0722 366.615L36.7915 367.314C36.8693 367.321 36.9475 367.325 37.0257 367.325Z" fill="#2F2E41"/>
<path d="M35.4504 196.404C37.8404 197.824 39.2707 200.434 40.0915 203.092C41.6109 208.009 42.5255 213.092 42.815 218.23L43.6826 233.612L54.4198 274.394C45.1135 282.264 39.7458 280.475 27.2181 274.038C14.6904 267.6 13.2595 276.184 13.2595 276.184L10.7546 241.485L7.17577 203.567C7.97925 202.6 8.88866 201.726 9.88696 200.962C13.1949 198.39 17.0438 196.603 21.1433 195.734C25.2429 194.865 29.4864 194.937 33.5539 195.946L35.4504 196.404Z" fill="#E6E6E6"/>
<path d="M38.9378 244.028C38.6491 244.136 38.3695 244.266 38.1013 244.418L13.3705 232.045L12.96 225.342L2.75877 224.639L2.2123 239.918L35.2608 250.842C35.5304 251.999 36.1463 253.047 37.0264 253.847C37.9066 254.646 39.0093 255.158 40.1879 255.315C41.3665 255.473 42.5651 255.268 43.6243 254.728C44.6835 254.187 45.553 253.338 46.1172 252.291C46.6813 251.245 46.9134 250.052 46.7826 248.871C46.6517 247.69 46.1641 246.576 45.3847 245.679C44.6052 244.781 43.5708 244.142 42.419 243.847C41.2673 243.551 40.0528 243.613 38.9372 244.024L38.9378 244.028Z" fill="#A0616A"/>
<path d="M7.35419 203.737C1.26989 205.884 0.197571 229.138 0.197571 229.138C7.35586 225.203 15.9456 231.642 15.9456 231.642C15.9456 231.642 17.735 225.56 19.8824 217.691C20.5309 215.477 20.6085 213.135 20.1079 210.884C19.6073 208.632 18.5449 206.543 17.0196 204.812C17.0196 204.812 13.4391 201.59 7.35419 203.737Z" fill="#E6E6E6"/>
<path d="M14.4802 180.953C16.1865 179.588 18.5146 182.067 18.5146 182.067L19.8797 169.788C19.8797 169.788 28.4114 170.81 33.8728 169.447C39.3343 168.085 40.1869 174.394 40.1869 174.394C40.4684 171.845 40.5255 169.277 40.3575 166.719C40.0162 163.649 35.5797 160.578 27.73 158.532C19.8802 156.485 15.785 165.354 15.785 165.354C10.3214 168.082 12.7716 182.317 14.4802 180.953Z" fill="#2F2E41"/>
</g>
</svg>
