<?xml version="1.0" standalone="no"?>
<!DOCTYPE svg PUBLIC "-//W3C//DTD SVG 20010904//EN"
 "http://www.w3.org/TR/2001/REC-SVG-20010904/DTD/svg10.dtd">
<svg version="1.0" xmlns="http://www.w3.org/2000/svg"
 width="700.000000pt" height="700.000000pt" viewBox="0 0 700.000000 700.000000"
 preserveAspectRatio="xMidYMid meet">
<metadata>
Created by potrace 1.11, written by Peter Selinger 2001-2013
</metadata>
<g transform="translate(0.000000,700.000000) scale(0.100000,-0.100000)"
fill="#000000" stroke="none">
<path d="M1580 6991 c-88 -28 -155 -87 -194 -170 -19 -42 -21 -67 -24 -273
l-3 -228 -250 0 c-280 0 -298 -3 -345 -66 l-29 -37 -5 -311 -5 -311 -76 -110
c-110 -160 -169 -262 -263 -457 -166 -341 -254 -631 -317 -1038 -27 -172 -37
-616 -20 -808 62 -658 299 -1274 693 -1798 37 -50 68 -94 68 -98 0 -4 -26 -42
-59 -84 -208 -272 -722 -966 -736 -993 -13 -24 -16 -47 -12 -85 6 -60 26 -96
63 -112 19 -9 879 -12 3435 -12 2972 0 3414 2 3438 15 54 27 77 134 45 198
-10 18 -92 133 -184 257 -91 124 -247 335 -345 470 -98 135 -196 268 -217 296
-21 28 -38 55 -38 60 0 5 37 60 83 121 310 420 526 920 622 1440 75 402 75
884 0 1286 -74 399 -229 815 -426 1143 l-49 82 0 679 0 680 -23 21 -23 22
-820 0 -820 0 -164 54 c-283 93 -560 146 -855 165 -180 11 -2109 13 -2145 2z
m1615 -90 c22 -10 52 -31 67 -47 54 -58 58 -81 58 -354 l0 -250 185 0 c117 0
185 4 185 10 0 7 452 10 1335 10 l1335 0 0 -800 0 -800 -177 -2 -178 -3 0
-205 0 -205 198 -3 197 -2 0 -475 0 -475 50 0 50 0 0 -265 0 -265 -375 0
c-255 0 -375 3 -375 10 0 7 -22 10 -57 8 l-58 -3 -3 -108 -3 -107 -372 2 -372
3 -3 108 -3 107 -495 0 -496 0 4 -282 3 -283 -504 -3 -504 -2 7 285 8 285
-1025 0 -1026 0 -19 25 c-20 25 -20 53 -24 1682 -4 1501 -3 1661 11 1693 26
58 37 60 341 60 l275 0 -4 222 c-4 248 4 304 48 366 16 21 48 49 72 60 44 22
45 22 824 22 738 0 782 -1 820 -19z m983 -555 c3 -20 -3 -29 -22 -37 -44 -21
-74 6 -62 55 12 47 78 33 84 -18z m-128 24 c21 -38 -22 -80 -61 -60 -19 10
-27 59 -12 73 15 15 63 7 73 -13z m2210 -5287 c107 -147 236 -322 285 -388
168 -223 387 -528 365 -508 -11 10 -377 13 -1757 13 l-1743 0 0 -58 0 -59
-452 -6 c-248 -4 -993 -7 -1654 -7 l-1204 0 -16 26 c-13 20 -15 33 -8 60 6 22
174 256 443 615 l434 579 2556 0 2556 0 195 -267z"/>
<path d="M1770 6330 l0 -220 35 0 35 0 0 95 0 95 35 0 35 0 0 -96 0 -95 38 3
37 3 0 215 0 215 -37 3 -38 3 0 -95 0 -96 -35 0 -35 0 0 95 0 95 -35 0 -35 0
0 -220z"/>
<path d="M2010 6515 c0 -33 2 -35 35 -35 l35 0 0 -185 0 -185 35 0 35 0 0 185
0 185 35 0 c33 0 35 2 35 35 l0 35 -105 0 -105 0 0 -35z"/>
<path d="M2250 6331 l0 -221 30 0 30 0 1 133 1 132 21 -130 22 -130 35 0 35 0
16 111 c24 161 27 162 28 17 l1 -133 30 0 30 0 0 221 0 220 -47 -3 -47 -3 -22
-140 c-12 -77 -23 -133 -24 -125 -1 8 -11 71 -23 140 l-22 125 -47 3 -48 3 0
-220z"/>
<path d="M2580 6330 l0 -220 90 0 90 0 0 35 0 35 -55 0 -55 0 0 185 0 185 -35
0 -35 0 0 -220z"/>
<path d="M2819 6537 c-37 -28 -50 -96 -29 -151 5 -14 34 -52 65 -86 56 -61 68
-96 41 -119 -21 -18 -45 -2 -52 35 -5 29 -10 34 -35 34 -27 0 -29 -3 -29 -35
0 -42 22 -90 45 -99 9 -3 35 -6 57 -6 56 0 98 42 98 99 0 54 -12 81 -55 127
-78 82 -93 117 -61 143 20 17 46 3 46 -25 0 -21 5 -24 35 -24 32 0 35 2 35 31
0 48 -47 89 -102 89 -24 0 -50 -6 -59 -13z"/>
<path d="M3810 5790 l0 -380 1215 0 1215 0 0 380 0 380 -1215 0 -1215 0 0
-380z"/>
<path d="M1020 6098 c-24 -13 -53 -36 -64 -51 -21 -28 -21 -32 -24 -1522 l-2
-1493 26 -21 27 -21 1948 0 c1942 0 1949 0 1949 20 0 19 -7 20 -95 20 l-95 0
0 610 0 610 593 2 592 3 0 205 0 205 -1097 3 -1098 2 0 725 0 725 -177 -2
-178 -3 -5 -165 c-5 -178 -11 -200 -67 -251 -40 -38 -86 -59 -128 -59 l-35 0
0 -211 0 -211 -162 211 -162 211 -496 -2 -495 -3 -3 -97 -3 -98 -119 0 -120 0
0 113 0 113 -33 32 -33 32 -117 0 -117 0 0 120 0 120 100 0 100 0 0 75 0 75
-183 0 c-170 0 -186 -2 -227 -22z m450 -538 l0 -120 -120 0 -120 0 0 120 0
120 120 0 120 0 0 -120z m0 -290 l0 -120 -120 0 -120 0 0 120 0 120 120 0 120
0 0 -120z m300 0 l0 -120 -120 0 -120 0 0 120 0 120 120 0 120 0 0 -120z
m1130 -170 c0 -33 1 -60 3 -60 1 0 17 -4 35 -9 32 -10 33 -9 60 39 15 28 30
50 34 50 4 0 34 -16 67 -36 l61 -36 -30 -53 -30 -52 26 -24 25 -23 50 28 c28
15 54 24 58 20 5 -5 22 -34 39 -64 l31 -56 -50 -28 c-42 -23 -50 -32 -45 -50
3 -11 6 -29 6 -38 0 -15 10 -18 65 -18 l65 0 0 -75 0 -75 -59 0 c-56 0 -59 -1
-65 -27 -4 -16 -9 -35 -12 -44 -3 -10 9 -23 33 -37 71 -41 69 -34 34 -96 -18
-30 -36 -58 -41 -61 -6 -3 -30 6 -55 20 l-45 27 -25 -24 c-31 -29 -31 -39 1
-89 14 -23 24 -42 22 -43 -2 -2 -31 -19 -65 -39 l-63 -36 -26 44 c-27 46 -31
48 -74 36 -22 -6 -26 -14 -30 -61 l-5 -55 -72 -3 -73 -3 0 51 c0 43 -3 52 -22
59 -65 24 -64 24 -92 -24 l-27 -45 -42 25 c-23 15 -52 31 -64 37 l-22 11 24
47 24 47 -27 26 -27 26 -44 -25 c-24 -13 -45 -23 -45 -22 -3 4 -28 47 -55 90
l-22 37 44 25 44 26 -10 40 c-11 38 -12 39 -61 42 l-51 3 -3 73 -3 72 50 0
c56 0 58 1 67 57 6 38 4 41 -32 63 -22 13 -40 25 -42 26 -2 1 13 32 34 68 l38
66 43 -26 43 -25 30 23 c16 13 29 27 29 32 1 5 -10 28 -24 52 l-25 42 61 36
c33 20 65 34 69 31 5 -3 19 -24 32 -46 21 -38 24 -40 58 -34 49 10 50 10 50
71 l0 54 75 0 75 0 0 -60z m-1430 -125 l0 -125 -120 0 -120 0 0 125 0 125 120
0 120 0 0 -125z m300 0 l0 -125 -120 0 -120 0 0 125 0 125 120 0 120 0 0 -125z
m-300 -290 l0 -125 -120 0 -120 0 0 125 0 125 120 0 120 0 0 -125z m300 0 l0
-125 -120 0 -120 0 0 125 0 125 120 0 120 0 0 -125z m-300 -290 l0 -125 -120
0 -120 0 0 125 0 125 120 0 120 0 0 -125z m300 0 l0 -125 -120 0 -120 0 0 125
0 125 120 0 120 0 0 -125z m-300 -290 l0 -125 -120 0 -120 0 0 125 0 125 120
0 120 0 0 -125z m300 0 l0 -125 -120 0 -120 0 0 125 0 125 120 0 120 0 0 -125z
m1650 -49 c0 -48 1 -50 42 -60 20 -4 28 -2 32 11 4 10 15 29 25 42 l19 24 46
-27 c25 -15 46 -32 46 -38 0 -6 -10 -26 -21 -45 l-22 -35 21 -21 22 -21 40 23
c22 12 43 20 47 17 16 -10 58 -99 48 -102 -5 -2 -24 -13 -42 -24 -30 -18 -31
-21 -22 -50 10 -28 14 -30 60 -30 l49 0 0 -60 0 -60 -37 0 c-48 0 -61 -9 -69
-46 -5 -26 -2 -32 35 -52 23 -13 40 -26 38 -30 -2 -4 -16 -28 -31 -54 l-27
-47 -39 24 -39 25 -26 -25 -25 -26 25 -39 c14 -21 21 -41 17 -43 -4 -2 -28
-16 -54 -31 l-47 -27 -20 40 c-20 38 -22 39 -53 30 -18 -5 -34 -9 -35 -9 -2 0
-3 -20 -3 -45 l0 -45 -60 0 -60 0 0 45 c0 29 -4 45 -12 45 -7 0 -23 3 -35 6
-18 5 -27 -1 -44 -30 l-21 -36 -49 27 c-27 16 -49 33 -49 38 0 6 9 24 20 42
l19 32 -28 20 c-27 20 -28 20 -57 0 -16 -10 -31 -19 -34 -19 -3 0 -18 23 -34
52 -31 55 -31 53 20 83 13 9 16 19 10 48 -7 36 -8 37 -52 37 l-45 0 3 58 3 57
41 3 c33 2 43 8 48 25 11 41 6 54 -29 73 l-34 18 26 46 c36 64 36 63 77 39
l37 -22 24 23 25 23 -20 34 c-11 19 -20 38 -20 43 0 8 86 60 99 60 4 0 15 -16
25 -35 19 -34 37 -42 70 -29 11 4 16 19 16 50 l0 44 60 0 60 0 0 -44z m670 10
c0 -32 29 -42 47 -16 17 24 23 24 47 7 15 -11 16 -18 8 -33 -16 -30 0 -49 28
-34 20 11 25 10 37 -6 17 -24 17 -30 -7 -47 -26 -18 -16 -47 16 -47 20 0 24
-5 24 -30 0 -25 -4 -30 -25 -30 -31 0 -34 -31 -5 -51 19 -14 19 -14 1 -39 -16
-20 -21 -22 -35 -11 -23 19 -50 -3 -36 -29 14 -26 13 -28 -12 -41 -18 -9 -24
-8 -34 6 -17 23 -48 15 -52 -13 -3 -17 -10 -22 -33 -22 -24 0 -29 4 -29 25 0
29 -26 34 -45 9 -18 -26 -56 -1 -53 34 3 23 -1 27 -24 27 -15 0 -33 8 -41 19
-13 18 -12 22 5 35 23 19 15 51 -13 51 -14 0 -19 7 -19 30 0 23 5 30 19 30 26
0 35 30 14 45 -15 11 -15 17 -5 39 10 23 15 25 33 16 30 -16 53 4 38 33 -9 16
-8 23 7 34 24 18 31 17 44 -7 14 -25 40 -15 40 16 0 20 5 24 30 24 25 0 30 -4
30 -24z m-2620 -256 l0 -120 -120 0 -120 0 0 120 0 120 120 0 120 0 0 -120z
m300 0 l0 -120 -120 0 -120 0 0 120 0 120 120 0 120 0 0 -120z m-300 -290 l0
-120 -120 0 -120 0 0 120 0 120 120 0 120 0 0 -120z m300 0 l0 -120 -120 0
-120 0 0 120 0 120 120 0 120 0 0 -120z"/>
<path d="M3900 5245 l0 -55 525 0 525 0 0 55 0 55 -525 0 -525 0 0 -55z"/>
<path d="M5020 5245 l0 -55 185 0 185 0 0 55 0 55 -185 0 -185 0 0 -55z"/>
<path d="M5470 5245 l0 -55 340 0 340 0 0 55 0 55 -340 0 -340 0 0 -55z"/>
<path d="M3760 5080 l0 -60 340 0 340 0 0 60 0 60 -340 0 -340 0 0 -60z"/>
<path d="M4520 5080 l0 -60 185 0 185 0 0 60 0 60 -185 0 -185 0 0 -60z"/>
<path d="M4960 5080 l0 -60 525 0 525 0 0 60 0 60 -525 0 -525 0 0 -60z"/>
<path d="M4007 4983 c-4 -3 -7 -30 -7 -60 l0 -53 340 0 340 0 0 60 0 60 -333
0 c-184 0 -337 -3 -340 -7z"/>
<path d="M4760 4930 l0 -60 185 0 185 0 0 60 0 60 -185 0 -185 0 0 -60z"/>
<path d="M5200 4930 l0 -60 525 0 525 0 0 60 0 60 -525 0 -525 0 0 -60z"/>
<path d="M4840 3885 l0 -215 -30 -53 c-24 -42 -30 -66 -30 -111 0 -55 25 -126
50 -141 5 -3 10 -46 10 -96 l0 -89 50 0 c50 0 51 -1 72 -45 12 -25 25 -45 29
-45 4 0 18 19 31 43 l23 42 603 3 602 2 0 460 0 460 -705 0 -705 0 0 -215z"/>
<path d="M6400 3131 l0 -111 -290 0 -290 0 0 -95 0 -95 310 0 310 0 -2 202
c-3 184 -5 203 -20 206 -16 3 -18 -7 -18 -107z"/>
<path d="M5630 3010 c0 -18 7 -20 60 -20 53 0 60 2 60 20 0 18 -7 20 -60 20
-53 0 -60 -2 -60 -20z"/>
<path d="M4950 2830 l0 -190 310 0 310 0 0 190 0 190 -310 0 -310 0 0 -190z"/>
<path d="M3300 2540 l0 -240 270 0 270 0 0 240 0 240 -270 0 -270 0 0 -240z"/>
</g>
</svg>
